<?xml version="1.0" encoding="utf-8"?>
<!-- Generator: Adobe Illustrator 16.0.0, SVG Export Plug-In . SVG Version: 6.00 Build 0)  -->
<!DOCTYPE svg PUBLIC "-//W3C//DTD SVG 1.1//EN" "http://www.w3.org/Graphics/SVG/1.1/DTD/svg11.dtd">
<svg version="1.1" id="Layer_1" xmlns="http://www.w3.org/2000/svg" xmlns:xlink="http://www.w3.org/1999/xlink" x="0px" y="0px"
	 width="1382.031px" height="359.972px" viewBox="0 0 1382.031 359.972" enable-background="new 0 0 1382.031 359.972"
	 xml:space="preserve">
<g>
	<path fill="#7D1645" d="M0,290.615v-54.574c14.274,10.023,28.915,18.143,43.816,24.369c14.948,6.213,27.494,9.303,37.708,9.303
		c10.604,0,19.683-2.604,27.293-7.764c7.587-5.197,11.397-11.434,11.397-18.654c0.013-7.449-2.438-13.623-7.35-18.521
		c-4.924-4.93-15.563-12.002-31.885-21.275c-32.667-18.18-54.03-33.762-64.149-46.651C6.734,143.964,1.657,129.897,1.657,114.664
		c0-19.665,7.646-35.696,22.961-48.136c15.315-12.428,35.034-18.641,59.12-18.641c25.079,0,50.774,7.054,77.133,21.15l0.012,50.111
		c-30.074-18.221-54.669-27.275-73.783-27.275c-9.836-0.006-17.766,2.055-23.803,6.238c-6.012,4.189-9.042,9.723-9.042,16.576
		c-0.012,5.953,2.734,11.658,8.214,17.02c5.469,5.367,15.055,11.871,28.785,19.475l18.108,10.304
		c42.667,24.158,64.019,50.822,64.019,80.152c-0.012,20.973-8.201,38.146-24.63,51.627c-16.404,13.422-37.53,20.168-63.297,20.168
		c-15.257,0-28.796-1.621-40.644-4.877C32.939,305.302,17.99,299.337,0,290.615z M486.873,52.864v32.584
		c22.631-25.045,48.338-37.561,77.086-37.566c15.955,0,30.832,4.118,44.55,12.385c13.741,8.273,24.169,19.564,31.294,33.957
		c7.16,14.393,10.734,37.158,10.734,68.34V308.97h-50.656l0.012-145.844c0-26.182-3.988-44.875-12.001-56.084
		c-7.978-11.244-21.305-16.865-40.064-16.871c-23.955,0.006-44.266,12.007-60.954,35.914V308.97l-51.769-0.012V52.864H486.873z
		 M899.182,185.371H719.078c1.29,24.529,9.504,44.006,24.643,58.48c15.102,14.475,34.643,21.695,58.586,21.695
		c33.436,0,64.221-10.369,92.426-31.193v49.574c-15.6,10.391-31.021,17.801-46.35,22.273c-15.303,4.451-33.281,6.676-53.876,6.676
		c-28.192,0-51.012-5.857-68.458-17.539c-17.445-11.684-31.423-27.412-41.897-47.189c-10.487-19.754-15.706-42.621-15.718-68.588
		c0-38.969,11.03-70.695,33.14-95.088c22.062-24.376,50.728-36.584,85.998-36.584c33.969,0,61.024,11.883,81.288,35.613
		c20.215,23.766,30.322,55.586,30.322,95.461V185.371z M720.203,155.054l128.866-0.006c-1.313-20.222-7.338-35.809-18.12-46.758
		c-10.734-10.971-25.222-16.428-43.366-16.422c-18.191-0.006-33.104,5.457-44.703,16.428
		C731.305,119.228,723.729,134.826,720.203,155.054z M1029.635,267.794c-24.334,0-36.478-14.652-36.465-43.922l-0.019-171.423
		L993.146,0l-53.358,52.449L897.975,93.55v4.965l44.526,0.006l0.012,113.598c-0.012,23.205,1.065,38.893,3.207,47.166
		c2.095,8.297,4.782,14.949,7.906,20.037c3.16,5.113,7.149,9.707,12.002,13.766c15.386,13.576,34.679,20.346,57.876,20.346
		c23.009,0,44.266-5.457,63.748-16.451l-0.013-47.271C1067.036,261.722,1047.826,267.794,1029.635,267.794z M1343.352,90.058
		c-25.091-24.477-56.479-36.916-94.046-37.584v-0.143l-223.802,0.006l0.013,45.68l114.712-0.006
		c-20.784,23.482-31.271,51.93-31.271,85.442c-0.012,37.094,12.901,68.057,38.69,92.816c25.814,24.771,57.912,37.164,96.319,37.164
		c39.709,0,72.659-12.215,98.816-36.619c26.181-24.406,39.247-55.072,39.247-92C1382.008,146.786,1369.131,115.185,1343.352,90.058z
		 M1306.732,242.585c-15.836,15.67-36.24,23.506-61.096,23.506c-25.057,0-45.567-7.742-61.521-23.211
		c-15.955-15.521-23.92-35.494-23.933-60.02c0-24.624,7.776-44.963,23.364-60.942c15.6-15.948,35.495-23.884,59.758-23.908h0.213
		c25.01,0.019,45.746,7.966,62.244,23.908c16.5,15.979,24.736,36.094,24.761,60.387
		C1330.522,206.818,1322.616,226.902,1306.732,242.585z"/>
	<polygon fill="#7D1645" points="321.911,307.521 271.263,359.972 271.242,193.117 175.961,52.449 228.903,52.449 296.633,154.938 
		363.88,52.449 416.773,52.449 321.911,193.095 	"/>
</g>
</svg>
